<svg xmlns="http://www.w3.org/2000/svg" width="1320" height="520" viewBox="0 0 1320 520">
<style>
text{font-family:Arial,Helvetica,sans-serif;fill:#202020}
.title{font-size:18px;font-weight:700}
.subtitle{font-size:13px;fill:#444}
.label{font-size:13px}
.tick{font-size:11px;fill:#444}
.caption{font-size:12px;fill:#333}
.axis{stroke:#202020;stroke-width:1.2}
.grid{stroke:#dddddd;stroke-width:1}
.ci{stroke-width:1.5;stroke-linecap:round}
</style>
<rect x="0" y="0" width="1320" height="520" fill="#ffffff"/>
<text class="title" x="80" y="62">A. Identification error</text>
<rect x="80" y="90" width="340" height="270" fill="#fff" stroke="#cfcfcf"/>
<line class="grid" x1="136.7" y1="90" x2="136.7" y2="360"/>
<line class="axis" x1="136.7" y1="360" x2="136.7" y2="365"/>
<text class="tick" x="136.7" y="379" text-anchor="middle">10</text>
<line class="grid" x1="231.1" y1="90" x2="231.1" y2="360"/>
<line class="axis" x1="231.1" y1="360" x2="231.1" y2="365"/>
<text class="tick" x="231.1" y="379" text-anchor="middle">20</text>
<line class="grid" x1="325.6" y1="90" x2="325.6" y2="360"/>
<line class="axis" x1="325.6" y1="360" x2="325.6" y2="365"/>
<text class="tick" x="325.6" y="379" text-anchor="middle">30</text>
<line class="grid" x1="420.0" y1="90" x2="420.0" y2="360"/>
<line class="axis" x1="420.0" y1="360" x2="420.0" y2="365"/>
<text class="tick" x="420.0" y="379" text-anchor="middle">40</text>
<line class="grid" x1="80" y1="305.1" x2="420" y2="305.1"/>
<line class="axis" x1="75" y1="305.1" x2="80" y2="305.1"/>
<text class="tick" x="71" y="309.1" text-anchor="end">0.05</text>
<line class="grid" x1="80" y1="227.3" x2="420" y2="227.3"/>
<line class="axis" x1="75" y1="227.3" x2="80" y2="227.3"/>
<text class="tick" x="71" y="231.3" text-anchor="end">0.10</text>
<line class="grid" x1="80" y1="149.5" x2="420" y2="149.5"/>
<line class="axis" x1="75" y1="149.5" x2="80" y2="149.5"/>
<text class="tick" x="71" y="153.5" text-anchor="end">0.15</text>
<line class="axis" x1="80" y1="360" x2="420" y2="360"/>
<line class="axis" x1="80" y1="90" x2="80" y2="360"/>
<text class="label" x="250.0" y="405" text-anchor="middle">diagnostic horizon (steps)</text>
<text class="label" x="28" y="225.0" transform="rotate(-90 28 225.0)" text-anchor="middle">parameter error (L1)</text>
<line class="ci" x1="80.0" y1="232.8" x2="80.0" y2="197.6" stroke="#0072b2"/>
<line class="ci" x1="76.0" y1="232.8" x2="84.0" y2="232.8" stroke="#0072b2"/>
<line class="ci" x1="76.0" y1="197.6" x2="84.0" y2="197.6" stroke="#0072b2"/>
<circle cx="80.0" cy="215.2" r="4.5" fill="#0072b2"/>
<line class="ci" x1="117.8" y1="253.3" x2="117.8" y2="220.4" stroke="#0072b2"/>
<line class="ci" x1="113.8" y1="253.3" x2="121.8" y2="253.3" stroke="#0072b2"/>
<line class="ci" x1="113.8" y1="220.4" x2="121.8" y2="220.4" stroke="#0072b2"/>
<circle cx="117.8" cy="236.8" r="4.5" fill="#0072b2"/>
<line class="ci" x1="193.3" y1="295.4" x2="193.3" y2="268.3" stroke="#0072b2"/>
<line class="ci" x1="189.3" y1="295.4" x2="197.3" y2="295.4" stroke="#0072b2"/>
<line class="ci" x1="189.3" y1="268.3" x2="197.3" y2="268.3" stroke="#0072b2"/>
<circle cx="193.3" cy="281.8" r="4.5" fill="#0072b2"/>
<line class="ci" x1="268.9" y1="314.4" x2="268.9" y2="295.3" stroke="#0072b2"/>
<line class="ci" x1="264.9" y1="314.4" x2="272.9" y2="314.4" stroke="#0072b2"/>
<line class="ci" x1="264.9" y1="295.3" x2="272.9" y2="295.3" stroke="#0072b2"/>
<circle cx="268.9" cy="304.8" r="4.5" fill="#0072b2"/>
<line class="ci" x1="420.0" y1="332.0" x2="420.0" y2="316.3" stroke="#0072b2"/>
<line class="ci" x1="416.0" y1="332.0" x2="424.0" y2="332.0" stroke="#0072b2"/>
<line class="ci" x1="416.0" y1="316.3" x2="424.0" y2="316.3" stroke="#0072b2"/>
<circle cx="420.0" cy="324.2" r="4.5" fill="#0072b2"/>
<polyline fill="none" stroke="#0072b2" stroke-width="2" points="80.0,215.2 117.8,236.8 193.3,281.8 268.9,304.8 420.0,324.2"/>
<line class="ci" x1="80.0" y1="252.0" x2="80.0" y2="210.4" stroke="#009e73"/>
<line class="ci" x1="76.0" y1="252.0" x2="84.0" y2="252.0" stroke="#009e73"/>
<line class="ci" x1="76.0" y1="210.4" x2="84.0" y2="210.4" stroke="#009e73"/>
<circle cx="80.0" cy="231.2" r="4.5" fill="#009e73"/>
<line class="ci" x1="117.8" y1="288.8" x2="117.8" y2="256.1" stroke="#009e73"/>
<line class="ci" x1="113.8" y1="288.8" x2="121.8" y2="288.8" stroke="#009e73"/>
<line class="ci" x1="113.8" y1="256.1" x2="121.8" y2="256.1" stroke="#009e73"/>
<circle cx="117.8" cy="272.4" r="4.5" fill="#009e73"/>
<line class="ci" x1="193.3" y1="321.5" x2="193.3" y2="298.4" stroke="#009e73"/>
<line class="ci" x1="189.3" y1="321.5" x2="197.3" y2="321.5" stroke="#009e73"/>
<line class="ci" x1="189.3" y1="298.4" x2="197.3" y2="298.4" stroke="#009e73"/>
<circle cx="193.3" cy="310.0" r="4.5" fill="#009e73"/>
<line class="ci" x1="268.9" y1="323.4" x2="268.9" y2="300.8" stroke="#009e73"/>
<line class="ci" x1="264.9" y1="323.4" x2="272.9" y2="323.4" stroke="#009e73"/>
<line class="ci" x1="264.9" y1="300.8" x2="272.9" y2="300.8" stroke="#009e73"/>
<circle cx="268.9" cy="312.1" r="4.5" fill="#009e73"/>
<line class="ci" x1="420.0" y1="337.2" x2="420.0" y2="320.3" stroke="#009e73"/>
<line class="ci" x1="416.0" y1="337.2" x2="424.0" y2="337.2" stroke="#009e73"/>
<line class="ci" x1="416.0" y1="320.3" x2="424.0" y2="320.3" stroke="#009e73"/>
<circle cx="420.0" cy="328.8" r="4.5" fill="#009e73"/>
<polyline fill="none" stroke="#009e73" stroke-width="2" points="80.0,231.2 117.8,272.4 193.3,310.0 268.9,312.1 420.0,328.8"/>
<line class="ci" x1="80.0" y1="257.9" x2="80.0" y2="227.5" stroke="#cc79a7"/>
<line class="ci" x1="76.0" y1="257.9" x2="84.0" y2="257.9" stroke="#cc79a7"/>
<line class="ci" x1="76.0" y1="227.5" x2="84.0" y2="227.5" stroke="#cc79a7"/>
<circle cx="80.0" cy="242.7" r="4.5" fill="#cc79a7"/>
<line class="ci" x1="117.8" y1="290.5" x2="117.8" y2="267.0" stroke="#cc79a7"/>
<line class="ci" x1="113.8" y1="290.5" x2="121.8" y2="290.5" stroke="#cc79a7"/>
<line class="ci" x1="113.8" y1="267.0" x2="121.8" y2="267.0" stroke="#cc79a7"/>
<circle cx="117.8" cy="278.8" r="4.5" fill="#cc79a7"/>
<line class="ci" x1="193.3" y1="321.9" x2="193.3" y2="303.6" stroke="#cc79a7"/>
<line class="ci" x1="189.3" y1="321.9" x2="197.3" y2="321.9" stroke="#cc79a7"/>
<line class="ci" x1="189.3" y1="303.6" x2="197.3" y2="303.6" stroke="#cc79a7"/>
<circle cx="193.3" cy="312.7" r="4.5" fill="#cc79a7"/>
<line class="ci" x1="268.9" y1="332.7" x2="268.9" y2="315.4" stroke="#cc79a7"/>
<line class="ci" x1="264.9" y1="332.7" x2="272.9" y2="332.7" stroke="#cc79a7"/>
<line class="ci" x1="264.9" y1="315.4" x2="272.9" y2="315.4" stroke="#cc79a7"/>
<circle cx="268.9" cy="324.0" r="4.5" fill="#cc79a7"/>
<line class="ci" x1="420.0" y1="341.4" x2="420.0" y2="328.4" stroke="#cc79a7"/>
<line class="ci" x1="416.0" y1="341.4" x2="424.0" y2="341.4" stroke="#cc79a7"/>
<line class="ci" x1="416.0" y1="328.4" x2="424.0" y2="328.4" stroke="#cc79a7"/>
<circle cx="420.0" cy="334.9" r="4.5" fill="#cc79a7"/>
<polyline fill="none" stroke="#cc79a7" stroke-width="2" points="80.0,242.7 117.8,278.8 193.3,312.7 268.9,324.0 420.0,334.9"/>
<line class="ci" x1="80.0" y1="203.9" x2="80.0" y2="166.1" stroke="#d55e00"/>
<line class="ci" x1="76.0" y1="203.9" x2="84.0" y2="203.9" stroke="#d55e00"/>
<line class="ci" x1="76.0" y1="166.1" x2="84.0" y2="166.1" stroke="#d55e00"/>
<circle cx="80.0" cy="185.0" r="4.5" fill="#d55e00"/>
<line class="ci" x1="117.8" y1="265.1" x2="117.8" y2="235.0" stroke="#d55e00"/>
<line class="ci" x1="113.8" y1="265.1" x2="121.8" y2="265.1" stroke="#d55e00"/>
<line class="ci" x1="113.8" y1="235.0" x2="121.8" y2="235.0" stroke="#d55e00"/>
<circle cx="117.8" cy="250.1" r="4.5" fill="#d55e00"/>
<line class="ci" x1="193.3" y1="296.7" x2="193.3" y2="270.2" stroke="#d55e00"/>
<line class="ci" x1="189.3" y1="296.7" x2="197.3" y2="296.7" stroke="#d55e00"/>
<line class="ci" x1="189.3" y1="270.2" x2="197.3" y2="270.2" stroke="#d55e00"/>
<circle cx="193.3" cy="283.4" r="4.5" fill="#d55e00"/>
<line class="ci" x1="268.9" y1="316.8" x2="268.9" y2="298.2" stroke="#d55e00"/>
<line class="ci" x1="264.9" y1="316.8" x2="272.9" y2="316.8" stroke="#d55e00"/>
<line class="ci" x1="264.9" y1="298.2" x2="272.9" y2="298.2" stroke="#d55e00"/>
<circle cx="268.9" cy="307.5" r="4.5" fill="#d55e00"/>
<line class="ci" x1="420.0" y1="329.9" x2="420.0" y2="314.0" stroke="#d55e00"/>
<line class="ci" x1="416.0" y1="329.9" x2="424.0" y2="329.9" stroke="#d55e00"/>
<line class="ci" x1="416.0" y1="314.0" x2="424.0" y2="314.0" stroke="#d55e00"/>
<circle cx="420.0" cy="321.9" r="4.5" fill="#d55e00"/>
<polyline fill="none" stroke="#d55e00" stroke-width="2" points="80.0,185.0 117.8,250.1 193.3,283.4 268.9,307.5 420.0,321.9"/>
<line class="ci" x1="80.0" y1="167.4" x2="80.0" y2="118.9" stroke="#777777"/>
<line class="ci" x1="76.0" y1="167.4" x2="84.0" y2="167.4" stroke="#777777"/>
<line class="ci" x1="76.0" y1="118.9" x2="84.0" y2="118.9" stroke="#777777"/>
<circle cx="80.0" cy="143.1" r="4.5" fill="#777777"/>
<line class="ci" x1="117.8" y1="220.9" x2="117.8" y2="184.9" stroke="#777777"/>
<line class="ci" x1="113.8" y1="220.9" x2="121.8" y2="220.9" stroke="#777777"/>
<line class="ci" x1="113.8" y1="184.9" x2="121.8" y2="184.9" stroke="#777777"/>
<circle cx="117.8" cy="202.9" r="4.5" fill="#777777"/>
<line class="ci" x1="193.3" y1="272.3" x2="193.3" y2="244.1" stroke="#777777"/>
<line class="ci" x1="189.3" y1="272.3" x2="197.3" y2="272.3" stroke="#777777"/>
<line class="ci" x1="189.3" y1="244.1" x2="197.3" y2="244.1" stroke="#777777"/>
<circle cx="193.3" cy="258.2" r="4.5" fill="#777777"/>
<line class="ci" x1="268.9" y1="291.2" x2="268.9" y2="264.9" stroke="#777777"/>
<line class="ci" x1="264.9" y1="291.2" x2="272.9" y2="291.2" stroke="#777777"/>
<line class="ci" x1="264.9" y1="264.9" x2="272.9" y2="264.9" stroke="#777777"/>
<circle cx="268.9" cy="278.1" r="4.5" fill="#777777"/>
<line class="ci" x1="420.0" y1="315.5" x2="420.0" y2="292.5" stroke="#777777"/>
<line class="ci" x1="416.0" y1="315.5" x2="424.0" y2="315.5" stroke="#777777"/>
<line class="ci" x1="416.0" y1="292.5" x2="424.0" y2="292.5" stroke="#777777"/>
<circle cx="420.0" cy="304.0" r="4.5" fill="#777777"/>
<polyline fill="none" stroke="#777777" stroke-width="2" points="80.0,143.1 117.8,202.9 193.3,258.2 268.9,278.1 420.0,304.0"/>
<line class="ci" x1="80.0" y1="158.4" x2="80.0" y2="108.6" stroke="#e69f00"/>
<line class="ci" x1="76.0" y1="158.4" x2="84.0" y2="158.4" stroke="#e69f00"/>
<line class="ci" x1="76.0" y1="108.6" x2="84.0" y2="108.6" stroke="#e69f00"/>
<circle cx="80.0" cy="133.5" r="4.5" fill="#e69f00"/>
<line class="ci" x1="117.8" y1="184.6" x2="117.8" y2="136.8" stroke="#e69f00"/>
<line class="ci" x1="113.8" y1="184.6" x2="121.8" y2="184.6" stroke="#e69f00"/>
<line class="ci" x1="113.8" y1="136.8" x2="121.8" y2="136.8" stroke="#e69f00"/>
<circle cx="117.8" cy="160.7" r="4.5" fill="#e69f00"/>
<line class="ci" x1="193.3" y1="202.8" x2="193.3" y2="160.1" stroke="#e69f00"/>
<line class="ci" x1="189.3" y1="202.8" x2="197.3" y2="202.8" stroke="#e69f00"/>
<line class="ci" x1="189.3" y1="160.1" x2="197.3" y2="160.1" stroke="#e69f00"/>
<circle cx="193.3" cy="181.4" r="4.5" fill="#e69f00"/>
<line class="ci" x1="268.9" y1="212.2" x2="268.9" y2="169.1" stroke="#e69f00"/>
<line class="ci" x1="264.9" y1="212.2" x2="272.9" y2="212.2" stroke="#e69f00"/>
<line class="ci" x1="264.9" y1="169.1" x2="272.9" y2="169.1" stroke="#e69f00"/>
<circle cx="268.9" cy="190.6" r="4.5" fill="#e69f00"/>
<line class="ci" x1="420.0" y1="299.1" x2="420.0" y2="269.9" stroke="#e69f00"/>
<line class="ci" x1="416.0" y1="299.1" x2="424.0" y2="299.1" stroke="#e69f00"/>
<line class="ci" x1="416.0" y1="269.9" x2="424.0" y2="269.9" stroke="#e69f00"/>
<circle cx="420.0" cy="284.5" r="4.5" fill="#e69f00"/>
<polyline fill="none" stroke="#e69f00" stroke-width="2" points="80.0,133.5 117.8,160.7 193.3,181.4 268.9,190.6 420.0,284.5"/>
<text class="title" x="510" y="62">B. Peak task-state disturbance</text>
<rect x="510" y="90" width="340" height="270" fill="#fff" stroke="#cfcfcf"/>
<line class="grid" x1="566.7" y1="90" x2="566.7" y2="360"/>
<line class="axis" x1="566.7" y1="360" x2="566.7" y2="365"/>
<text class="tick" x="566.7" y="379" text-anchor="middle">10</text>
<line class="grid" x1="661.1" y1="90" x2="661.1" y2="360"/>
<line class="axis" x1="661.1" y1="360" x2="661.1" y2="365"/>
<text class="tick" x="661.1" y="379" text-anchor="middle">20</text>
<line class="grid" x1="755.6" y1="90" x2="755.6" y2="360"/>
<line class="axis" x1="755.6" y1="360" x2="755.6" y2="365"/>
<text class="tick" x="755.6" y="379" text-anchor="middle">30</text>
<line class="grid" x1="850.0" y1="90" x2="850.0" y2="360"/>
<line class="axis" x1="850.0" y1="360" x2="850.0" y2="365"/>
<text class="tick" x="850.0" y="379" text-anchor="middle">40</text>
<line class="grid" x1="510" y1="349.4" x2="850" y2="349.4"/>
<line class="axis" x1="505" y1="349.4" x2="510" y2="349.4"/>
<text class="tick" x="501" y="353.4" text-anchor="end">0.00</text>
<line class="grid" x1="510" y1="245.4" x2="850" y2="245.4"/>
<line class="axis" x1="505" y1="245.4" x2="510" y2="245.4"/>
<text class="tick" x="501" y="249.4" text-anchor="end">1.0</text>
<line class="grid" x1="510" y1="141.5" x2="850" y2="141.5"/>
<line class="axis" x1="505" y1="141.5" x2="510" y2="141.5"/>
<text class="tick" x="501" y="145.5" text-anchor="end">2.0</text>
<line class="axis" x1="510" y1="360" x2="850" y2="360"/>
<line class="axis" x1="510" y1="90" x2="510" y2="360"/>
<text class="label" x="680.0" y="405" text-anchor="middle">diagnostic horizon (steps)</text>
<text class="label" x="458" y="225.0" transform="rotate(-90 458 225.0)" text-anchor="middle">max disturbance</text>
<line class="ci" x1="510.0" y1="341.4" x2="510.0" y2="341.0" stroke="#0072b2"/>
<line class="ci" x1="506.0" y1="341.4" x2="514.0" y2="341.4" stroke="#0072b2"/>
<line class="ci" x1="506.0" y1="341.0" x2="514.0" y2="341.0" stroke="#0072b2"/>
<circle cx="510.0" cy="341.2" r="4.5" fill="#0072b2"/>
<line class="ci" x1="547.8" y1="340.3" x2="547.8" y2="339.7" stroke="#0072b2"/>
<line class="ci" x1="543.8" y1="340.3" x2="551.8" y2="340.3" stroke="#0072b2"/>
<line class="ci" x1="543.8" y1="339.7" x2="551.8" y2="339.7" stroke="#0072b2"/>
<circle cx="547.8" cy="340.0" r="4.5" fill="#0072b2"/>
<line class="ci" x1="623.3" y1="339.2" x2="623.3" y2="338.3" stroke="#0072b2"/>
<line class="ci" x1="619.3" y1="339.2" x2="627.3" y2="339.2" stroke="#0072b2"/>
<line class="ci" x1="619.3" y1="338.3" x2="627.3" y2="338.3" stroke="#0072b2"/>
<circle cx="623.3" cy="338.7" r="4.5" fill="#0072b2"/>
<line class="ci" x1="698.9" y1="338.1" x2="698.9" y2="337.1" stroke="#0072b2"/>
<line class="ci" x1="694.9" y1="338.1" x2="702.9" y2="338.1" stroke="#0072b2"/>
<line class="ci" x1="694.9" y1="337.1" x2="702.9" y2="337.1" stroke="#0072b2"/>
<circle cx="698.9" cy="337.6" r="4.5" fill="#0072b2"/>
<line class="ci" x1="850.0" y1="336.0" x2="850.0" y2="334.7" stroke="#0072b2"/>
<line class="ci" x1="846.0" y1="336.0" x2="854.0" y2="336.0" stroke="#0072b2"/>
<line class="ci" x1="846.0" y1="334.7" x2="854.0" y2="334.7" stroke="#0072b2"/>
<circle cx="850.0" cy="335.3" r="4.5" fill="#0072b2"/>
<polyline fill="none" stroke="#0072b2" stroke-width="2" points="510.0,341.2 547.8,340.0 623.3,338.7 698.9,337.6 850.0,335.3"/>
<line class="ci" x1="510.0" y1="339.6" x2="510.0" y2="338.9" stroke="#009e73"/>
<line class="ci" x1="506.0" y1="339.6" x2="514.0" y2="339.6" stroke="#009e73"/>
<line class="ci" x1="506.0" y1="338.9" x2="514.0" y2="338.9" stroke="#009e73"/>
<circle cx="510.0" cy="339.3" r="4.5" fill="#009e73"/>
<line class="ci" x1="547.8" y1="338.9" x2="547.8" y2="338.2" stroke="#009e73"/>
<line class="ci" x1="543.8" y1="338.9" x2="551.8" y2="338.9" stroke="#009e73"/>
<line class="ci" x1="543.8" y1="338.2" x2="551.8" y2="338.2" stroke="#009e73"/>
<circle cx="547.8" cy="338.6" r="4.5" fill="#009e73"/>
<line class="ci" x1="623.3" y1="338.2" x2="623.3" y2="337.5" stroke="#009e73"/>
<line class="ci" x1="619.3" y1="338.2" x2="627.3" y2="338.2" stroke="#009e73"/>
<line class="ci" x1="619.3" y1="337.5" x2="627.3" y2="337.5" stroke="#009e73"/>
<circle cx="623.3" cy="337.9" r="4.5" fill="#009e73"/>
<line class="ci" x1="698.9" y1="337.8" x2="698.9" y2="337.2" stroke="#009e73"/>
<line class="ci" x1="694.9" y1="337.8" x2="702.9" y2="337.8" stroke="#009e73"/>
<line class="ci" x1="694.9" y1="337.2" x2="702.9" y2="337.2" stroke="#009e73"/>
<circle cx="698.9" cy="337.5" r="4.5" fill="#009e73"/>
<line class="ci" x1="850.0" y1="337.2" x2="850.0" y2="336.5" stroke="#009e73"/>
<line class="ci" x1="846.0" y1="337.2" x2="854.0" y2="337.2" stroke="#009e73"/>
<line class="ci" x1="846.0" y1="336.5" x2="854.0" y2="336.5" stroke="#009e73"/>
<circle cx="850.0" cy="336.9" r="4.5" fill="#009e73"/>
<polyline fill="none" stroke="#009e73" stroke-width="2" points="510.0,339.3 547.8,338.6 623.3,337.9 698.9,337.5 850.0,336.9"/>
<line class="ci" x1="510.0" y1="334.2" x2="510.0" y2="333.3" stroke="#cc79a7"/>
<line class="ci" x1="506.0" y1="334.2" x2="514.0" y2="334.2" stroke="#cc79a7"/>
<line class="ci" x1="506.0" y1="333.3" x2="514.0" y2="333.3" stroke="#cc79a7"/>
<circle cx="510.0" cy="333.8" r="4.5" fill="#cc79a7"/>
<line class="ci" x1="547.8" y1="334.0" x2="547.8" y2="333.0" stroke="#cc79a7"/>
<line class="ci" x1="543.8" y1="334.0" x2="551.8" y2="334.0" stroke="#cc79a7"/>
<line class="ci" x1="543.8" y1="333.0" x2="551.8" y2="333.0" stroke="#cc79a7"/>
<circle cx="547.8" cy="333.5" r="4.5" fill="#cc79a7"/>
<line class="ci" x1="623.3" y1="330.7" x2="623.3" y2="329.6" stroke="#cc79a7"/>
<line class="ci" x1="619.3" y1="330.7" x2="627.3" y2="330.7" stroke="#cc79a7"/>
<line class="ci" x1="619.3" y1="329.6" x2="627.3" y2="329.6" stroke="#cc79a7"/>
<circle cx="623.3" cy="330.1" r="4.5" fill="#cc79a7"/>
<line class="ci" x1="698.9" y1="314.8" x2="698.9" y2="313.2" stroke="#cc79a7"/>
<line class="ci" x1="694.9" y1="314.8" x2="702.9" y2="314.8" stroke="#cc79a7"/>
<line class="ci" x1="694.9" y1="313.2" x2="702.9" y2="313.2" stroke="#cc79a7"/>
<circle cx="698.9" cy="314.0" r="4.5" fill="#cc79a7"/>
<line class="ci" x1="850.0" y1="297.2" x2="850.0" y2="295.1" stroke="#cc79a7"/>
<line class="ci" x1="846.0" y1="297.2" x2="854.0" y2="297.2" stroke="#cc79a7"/>
<line class="ci" x1="846.0" y1="295.1" x2="854.0" y2="295.1" stroke="#cc79a7"/>
<circle cx="850.0" cy="296.1" r="4.5" fill="#cc79a7"/>
<polyline fill="none" stroke="#cc79a7" stroke-width="2" points="510.0,333.8 547.8,333.5 623.3,330.1 698.9,314.0 850.0,296.1"/>
<line class="ci" x1="510.0" y1="325.6" x2="510.0" y2="324.3" stroke="#d55e00"/>
<line class="ci" x1="506.0" y1="325.6" x2="514.0" y2="325.6" stroke="#d55e00"/>
<line class="ci" x1="506.0" y1="324.3" x2="514.0" y2="324.3" stroke="#d55e00"/>
<circle cx="510.0" cy="325.0" r="4.5" fill="#d55e00"/>
<line class="ci" x1="547.8" y1="325.6" x2="547.8" y2="324.3" stroke="#d55e00"/>
<line class="ci" x1="543.8" y1="325.6" x2="551.8" y2="325.6" stroke="#d55e00"/>
<line class="ci" x1="543.8" y1="324.3" x2="551.8" y2="324.3" stroke="#d55e00"/>
<circle cx="547.8" cy="325.0" r="4.5" fill="#d55e00"/>
<line class="ci" x1="623.3" y1="325.0" x2="623.3" y2="323.7" stroke="#d55e00"/>
<line class="ci" x1="619.3" y1="325.0" x2="627.3" y2="325.0" stroke="#d55e00"/>
<line class="ci" x1="619.3" y1="323.7" x2="627.3" y2="323.7" stroke="#d55e00"/>
<circle cx="623.3" cy="324.3" r="4.5" fill="#d55e00"/>
<line class="ci" x1="698.9" y1="324.5" x2="698.9" y2="323.2" stroke="#d55e00"/>
<line class="ci" x1="694.9" y1="324.5" x2="702.9" y2="324.5" stroke="#d55e00"/>
<line class="ci" x1="694.9" y1="323.2" x2="702.9" y2="323.2" stroke="#d55e00"/>
<circle cx="698.9" cy="323.8" r="4.5" fill="#d55e00"/>
<line class="ci" x1="850.0" y1="323.5" x2="850.0" y2="322.0" stroke="#d55e00"/>
<line class="ci" x1="846.0" y1="323.5" x2="854.0" y2="323.5" stroke="#d55e00"/>
<line class="ci" x1="846.0" y1="322.0" x2="854.0" y2="322.0" stroke="#d55e00"/>
<circle cx="850.0" cy="322.8" r="4.5" fill="#d55e00"/>
<polyline fill="none" stroke="#d55e00" stroke-width="2" points="510.0,325.0 547.8,325.0 623.3,324.3 698.9,323.8 850.0,322.8"/>
<line class="ci" x1="510.0" y1="337.6" x2="510.0" y2="336.3" stroke="#777777"/>
<line class="ci" x1="506.0" y1="337.6" x2="514.0" y2="337.6" stroke="#777777"/>
<line class="ci" x1="506.0" y1="336.3" x2="514.0" y2="336.3" stroke="#777777"/>
<circle cx="510.0" cy="337.0" r="4.5" fill="#777777"/>
<line class="ci" x1="547.8" y1="331.6" x2="547.8" y2="329.7" stroke="#777777"/>
<line class="ci" x1="543.8" y1="331.6" x2="551.8" y2="331.6" stroke="#777777"/>
<line class="ci" x1="543.8" y1="329.7" x2="551.8" y2="329.7" stroke="#777777"/>
<circle cx="547.8" cy="330.7" r="4.5" fill="#777777"/>
<line class="ci" x1="623.3" y1="324.1" x2="623.3" y2="321.7" stroke="#777777"/>
<line class="ci" x1="619.3" y1="324.1" x2="627.3" y2="324.1" stroke="#777777"/>
<line class="ci" x1="619.3" y1="321.7" x2="627.3" y2="321.7" stroke="#777777"/>
<circle cx="623.3" cy="322.9" r="4.5" fill="#777777"/>
<line class="ci" x1="698.9" y1="318.2" x2="698.9" y2="315.3" stroke="#777777"/>
<line class="ci" x1="694.9" y1="318.2" x2="702.9" y2="318.2" stroke="#777777"/>
<line class="ci" x1="694.9" y1="315.3" x2="702.9" y2="315.3" stroke="#777777"/>
<circle cx="698.9" cy="316.8" r="4.5" fill="#777777"/>
<line class="ci" x1="850.0" y1="309.9" x2="850.0" y2="306.1" stroke="#777777"/>
<line class="ci" x1="846.0" y1="309.9" x2="854.0" y2="309.9" stroke="#777777"/>
<line class="ci" x1="846.0" y1="306.1" x2="854.0" y2="306.1" stroke="#777777"/>
<circle cx="850.0" cy="308.0" r="4.5" fill="#777777"/>
<polyline fill="none" stroke="#777777" stroke-width="2" points="510.0,337.0 547.8,330.7 623.3,322.9 698.9,316.8 850.0,308.0"/>
<line class="ci" x1="510.0" y1="324.9" x2="510.0" y2="324.1" stroke="#e69f00"/>
<line class="ci" x1="506.0" y1="324.9" x2="514.0" y2="324.9" stroke="#e69f00"/>
<line class="ci" x1="506.0" y1="324.1" x2="514.0" y2="324.1" stroke="#e69f00"/>
<circle cx="510.0" cy="324.5" r="4.5" fill="#e69f00"/>
<line class="ci" x1="547.8" y1="301.7" x2="547.8" y2="300.1" stroke="#e69f00"/>
<line class="ci" x1="543.8" y1="301.7" x2="551.8" y2="301.7" stroke="#e69f00"/>
<line class="ci" x1="543.8" y1="300.1" x2="551.8" y2="300.1" stroke="#e69f00"/>
<circle cx="547.8" cy="300.9" r="4.5" fill="#e69f00"/>
<line class="ci" x1="623.3" y1="255.5" x2="623.3" y2="252.3" stroke="#e69f00"/>
<line class="ci" x1="619.3" y1="255.5" x2="627.3" y2="255.5" stroke="#e69f00"/>
<line class="ci" x1="619.3" y1="252.3" x2="627.3" y2="252.3" stroke="#e69f00"/>
<circle cx="623.3" cy="253.9" r="4.5" fill="#e69f00"/>
<line class="ci" x1="698.9" y1="209.4" x2="698.9" y2="204.5" stroke="#e69f00"/>
<line class="ci" x1="694.9" y1="209.4" x2="702.9" y2="209.4" stroke="#e69f00"/>
<line class="ci" x1="694.9" y1="204.5" x2="702.9" y2="204.5" stroke="#e69f00"/>
<circle cx="698.9" cy="207.0" r="4.5" fill="#e69f00"/>
<line class="ci" x1="850.0" y1="114.8" x2="850.0" y2="108.6" stroke="#e69f00"/>
<line class="ci" x1="846.0" y1="114.8" x2="854.0" y2="114.8" stroke="#e69f00"/>
<line class="ci" x1="846.0" y1="108.6" x2="854.0" y2="108.6" stroke="#e69f00"/>
<circle cx="850.0" cy="111.7" r="4.5" fill="#e69f00"/>
<polyline fill="none" stroke="#e69f00" stroke-width="2" points="510.0,324.5 547.8,300.9 623.3,253.9 698.9,207.0 850.0,111.7"/>
<text class="title" x="940" y="62">C. Integrated task-state disturbance</text>
<rect x="940" y="90" width="340" height="270" fill="#fff" stroke="#cfcfcf"/>
<line class="grid" x1="996.7" y1="90" x2="996.7" y2="360"/>
<line class="axis" x1="996.7" y1="360" x2="996.7" y2="365"/>
<text class="tick" x="996.7" y="379" text-anchor="middle">10</text>
<line class="grid" x1="1091.1" y1="90" x2="1091.1" y2="360"/>
<line class="axis" x1="1091.1" y1="360" x2="1091.1" y2="365"/>
<text class="tick" x="1091.1" y="379" text-anchor="middle">20</text>
<line class="grid" x1="1185.6" y1="90" x2="1185.6" y2="360"/>
<line class="axis" x1="1185.6" y1="360" x2="1185.6" y2="365"/>
<text class="tick" x="1185.6" y="379" text-anchor="middle">30</text>
<line class="grid" x1="1280.0" y1="90" x2="1280.0" y2="360"/>
<line class="axis" x1="1280.0" y1="360" x2="1280.0" y2="365"/>
<text class="tick" x="1280.0" y="379" text-anchor="middle">40</text>
<line class="grid" x1="940" y1="342.2" x2="1280" y2="342.2"/>
<line class="axis" x1="935" y1="342.2" x2="940" y2="342.2"/>
<text class="tick" x="931" y="346.2" text-anchor="end">0.00</text>
<line class="grid" x1="940" y1="244.5" x2="1280" y2="244.5"/>
<line class="axis" x1="935" y1="244.5" x2="940" y2="244.5"/>
<text class="tick" x="931" y="248.5" text-anchor="end">20</text>
<line class="grid" x1="940" y1="146.8" x2="1280" y2="146.8"/>
<line class="axis" x1="935" y1="146.8" x2="940" y2="146.8"/>
<text class="tick" x="931" y="150.8" text-anchor="end">40</text>
<line class="axis" x1="940" y1="360" x2="1280" y2="360"/>
<line class="axis" x1="940" y1="90" x2="940" y2="360"/>
<text class="label" x="1110.0" y="405" text-anchor="middle">diagnostic horizon (steps)</text>
<text class="label" x="888" y="225.0" transform="rotate(-90 888 225.0)" text-anchor="middle">cumulative disturbance</text>
<line class="ci" x1="940.0" y1="341.4" x2="940.0" y2="341.3" stroke="#0072b2"/>
<line class="ci" x1="936.0" y1="341.4" x2="944.0" y2="341.4" stroke="#0072b2"/>
<line class="ci" x1="936.0" y1="341.3" x2="944.0" y2="341.3" stroke="#0072b2"/>
<circle cx="940.0" cy="341.4" r="4.5" fill="#0072b2"/>
<line class="ci" x1="977.8" y1="340.4" x2="977.8" y2="340.3" stroke="#0072b2"/>
<line class="ci" x1="973.8" y1="340.4" x2="981.8" y2="340.4" stroke="#0072b2"/>
<line class="ci" x1="973.8" y1="340.3" x2="981.8" y2="340.3" stroke="#0072b2"/>
<circle cx="977.8" cy="340.3" r="4.5" fill="#0072b2"/>
<line class="ci" x1="1053.3" y1="338.1" x2="1053.3" y2="337.7" stroke="#0072b2"/>
<line class="ci" x1="1049.3" y1="338.1" x2="1057.3" y2="338.1" stroke="#0072b2"/>
<line class="ci" x1="1049.3" y1="337.7" x2="1057.3" y2="337.7" stroke="#0072b2"/>
<circle cx="1053.3" cy="337.9" r="4.5" fill="#0072b2"/>
<line class="ci" x1="1128.9" y1="335.5" x2="1128.9" y2="334.8" stroke="#0072b2"/>
<line class="ci" x1="1124.9" y1="335.5" x2="1132.9" y2="335.5" stroke="#0072b2"/>
<line class="ci" x1="1124.9" y1="334.8" x2="1132.9" y2="334.8" stroke="#0072b2"/>
<circle cx="1128.9" cy="335.1" r="4.5" fill="#0072b2"/>
<line class="ci" x1="1280.0" y1="329.1" x2="1280.0" y2="327.6" stroke="#0072b2"/>
<line class="ci" x1="1276.0" y1="329.1" x2="1284.0" y2="329.1" stroke="#0072b2"/>
<line class="ci" x1="1276.0" y1="327.6" x2="1284.0" y2="327.6" stroke="#0072b2"/>
<circle cx="1280.0" cy="328.4" r="4.5" fill="#0072b2"/>
<polyline fill="none" stroke="#0072b2" stroke-width="2" points="940.0,341.4 977.8,340.3 1053.3,337.9 1128.9,335.1 1280.0,328.4"/>
<line class="ci" x1="940.0" y1="341.1" x2="940.0" y2="341.0" stroke="#009e73"/>
<line class="ci" x1="936.0" y1="341.1" x2="944.0" y2="341.1" stroke="#009e73"/>
<line class="ci" x1="936.0" y1="341.0" x2="944.0" y2="341.0" stroke="#009e73"/>
<circle cx="940.0" cy="341.1" r="4.5" fill="#009e73"/>
<line class="ci" x1="977.8" y1="339.9" x2="977.8" y2="339.6" stroke="#009e73"/>
<line class="ci" x1="973.8" y1="339.9" x2="981.8" y2="339.9" stroke="#009e73"/>
<line class="ci" x1="973.8" y1="339.6" x2="981.8" y2="339.6" stroke="#009e73"/>
<circle cx="977.8" cy="339.8" r="4.5" fill="#009e73"/>
<line class="ci" x1="1053.3" y1="337.0" x2="1053.3" y2="336.6" stroke="#009e73"/>
<line class="ci" x1="1049.3" y1="337.0" x2="1057.3" y2="337.0" stroke="#009e73"/>
<line class="ci" x1="1049.3" y1="336.6" x2="1057.3" y2="336.6" stroke="#009e73"/>
<circle cx="1053.3" cy="336.8" r="4.5" fill="#009e73"/>
<line class="ci" x1="1128.9" y1="333.9" x2="1128.9" y2="333.2" stroke="#009e73"/>
<line class="ci" x1="1124.9" y1="333.9" x2="1132.9" y2="333.9" stroke="#009e73"/>
<line class="ci" x1="1124.9" y1="333.2" x2="1132.9" y2="333.2" stroke="#009e73"/>
<circle cx="1128.9" cy="333.5" r="4.5" fill="#009e73"/>
<line class="ci" x1="1280.0" y1="326.9" x2="1280.0" y2="325.7" stroke="#009e73"/>
<line class="ci" x1="1276.0" y1="326.9" x2="1284.0" y2="326.9" stroke="#009e73"/>
<line class="ci" x1="1276.0" y1="325.7" x2="1284.0" y2="325.7" stroke="#009e73"/>
<circle cx="1280.0" cy="326.3" r="4.5" fill="#009e73"/>
<polyline fill="none" stroke="#009e73" stroke-width="2" points="940.0,341.1 977.8,339.8 1053.3,336.8 1128.9,333.5 1280.0,326.3"/>
<line class="ci" x1="940.0" y1="340.5" x2="940.0" y2="340.4" stroke="#cc79a7"/>
<line class="ci" x1="936.0" y1="340.5" x2="944.0" y2="340.5" stroke="#cc79a7"/>
<line class="ci" x1="936.0" y1="340.4" x2="944.0" y2="340.4" stroke="#cc79a7"/>
<circle cx="940.0" cy="340.5" r="4.5" fill="#cc79a7"/>
<line class="ci" x1="977.8" y1="339.1" x2="977.8" y2="338.9" stroke="#cc79a7"/>
<line class="ci" x1="973.8" y1="339.1" x2="981.8" y2="339.1" stroke="#cc79a7"/>
<line class="ci" x1="973.8" y1="338.9" x2="981.8" y2="338.9" stroke="#cc79a7"/>
<circle cx="977.8" cy="339.0" r="4.5" fill="#cc79a7"/>
<line class="ci" x1="1053.3" y1="334.4" x2="1053.3" y2="333.9" stroke="#cc79a7"/>
<line class="ci" x1="1049.3" y1="334.4" x2="1057.3" y2="334.4" stroke="#cc79a7"/>
<line class="ci" x1="1049.3" y1="333.9" x2="1057.3" y2="333.9" stroke="#cc79a7"/>
<circle cx="1053.3" cy="334.2" r="4.5" fill="#cc79a7"/>
<line class="ci" x1="1128.9" y1="324.9" x2="1128.9" y2="323.9" stroke="#cc79a7"/>
<line class="ci" x1="1124.9" y1="324.9" x2="1132.9" y2="324.9" stroke="#cc79a7"/>
<line class="ci" x1="1124.9" y1="323.9" x2="1132.9" y2="323.9" stroke="#cc79a7"/>
<circle cx="1128.9" cy="324.4" r="4.5" fill="#cc79a7"/>
<line class="ci" x1="1280.0" y1="294.7" x2="1280.0" y2="292.5" stroke="#cc79a7"/>
<line class="ci" x1="1276.0" y1="294.7" x2="1284.0" y2="294.7" stroke="#cc79a7"/>
<line class="ci" x1="1276.0" y1="292.5" x2="1284.0" y2="292.5" stroke="#cc79a7"/>
<circle cx="1280.0" cy="293.6" r="4.5" fill="#cc79a7"/>
<polyline fill="none" stroke="#cc79a7" stroke-width="2" points="940.0,340.5 977.8,339.0 1053.3,334.2 1128.9,324.4 1280.0,293.6"/>
<line class="ci" x1="940.0" y1="339.4" x2="940.0" y2="339.2" stroke="#d55e00"/>
<line class="ci" x1="936.0" y1="339.4" x2="944.0" y2="339.4" stroke="#d55e00"/>
<line class="ci" x1="936.0" y1="339.2" x2="944.0" y2="339.2" stroke="#d55e00"/>
<circle cx="940.0" cy="339.3" r="4.5" fill="#d55e00"/>
<line class="ci" x1="977.8" y1="337.4" x2="977.8" y2="337.2" stroke="#d55e00"/>
<line class="ci" x1="973.8" y1="337.4" x2="981.8" y2="337.4" stroke="#d55e00"/>
<line class="ci" x1="973.8" y1="337.2" x2="981.8" y2="337.2" stroke="#d55e00"/>
<circle cx="977.8" cy="337.3" r="4.5" fill="#d55e00"/>
<line class="ci" x1="1053.3" y1="332.5" x2="1053.3" y2="331.9" stroke="#d55e00"/>
<line class="ci" x1="1049.3" y1="332.5" x2="1057.3" y2="332.5" stroke="#d55e00"/>
<line class="ci" x1="1049.3" y1="331.9" x2="1057.3" y2="331.9" stroke="#d55e00"/>
<circle cx="1053.3" cy="332.2" r="4.5" fill="#d55e00"/>
<line class="ci" x1="1128.9" y1="327.3" x2="1128.9" y2="326.4" stroke="#d55e00"/>
<line class="ci" x1="1124.9" y1="327.3" x2="1132.9" y2="327.3" stroke="#d55e00"/>
<line class="ci" x1="1124.9" y1="326.4" x2="1132.9" y2="326.4" stroke="#d55e00"/>
<circle cx="1128.9" cy="326.9" r="4.5" fill="#d55e00"/>
<line class="ci" x1="1280.0" y1="316.1" x2="1280.0" y2="314.6" stroke="#d55e00"/>
<line class="ci" x1="1276.0" y1="316.1" x2="1284.0" y2="316.1" stroke="#d55e00"/>
<line class="ci" x1="1276.0" y1="314.6" x2="1284.0" y2="314.6" stroke="#d55e00"/>
<circle cx="1280.0" cy="315.4" r="4.5" fill="#d55e00"/>
<polyline fill="none" stroke="#d55e00" stroke-width="2" points="940.0,339.3 977.8,337.3 1053.3,332.2 1128.9,326.9 1280.0,315.4"/>
<line class="ci" x1="940.0" y1="340.7" x2="940.0" y2="340.6" stroke="#777777"/>
<line class="ci" x1="936.0" y1="340.7" x2="944.0" y2="340.7" stroke="#777777"/>
<line class="ci" x1="936.0" y1="340.6" x2="944.0" y2="340.6" stroke="#777777"/>
<circle cx="940.0" cy="340.6" r="4.5" fill="#777777"/>
<line class="ci" x1="977.8" y1="338.2" x2="977.8" y2="337.8" stroke="#777777"/>
<line class="ci" x1="973.8" y1="338.2" x2="981.8" y2="338.2" stroke="#777777"/>
<line class="ci" x1="973.8" y1="337.8" x2="981.8" y2="337.8" stroke="#777777"/>
<circle cx="977.8" cy="338.0" r="4.5" fill="#777777"/>
<line class="ci" x1="1053.3" y1="331.3" x2="1053.3" y2="330.2" stroke="#777777"/>
<line class="ci" x1="1049.3" y1="331.3" x2="1057.3" y2="331.3" stroke="#777777"/>
<line class="ci" x1="1049.3" y1="330.2" x2="1057.3" y2="330.2" stroke="#777777"/>
<circle cx="1053.3" cy="330.8" r="4.5" fill="#777777"/>
<line class="ci" x1="1128.9" y1="322.6" x2="1128.9" y2="320.5" stroke="#777777"/>
<line class="ci" x1="1124.9" y1="322.6" x2="1132.9" y2="322.6" stroke="#777777"/>
<line class="ci" x1="1124.9" y1="320.5" x2="1132.9" y2="320.5" stroke="#777777"/>
<circle cx="1128.9" cy="321.5" r="4.5" fill="#777777"/>
<line class="ci" x1="1280.0" y1="301.3" x2="1280.0" y2="297.1" stroke="#777777"/>
<line class="ci" x1="1276.0" y1="301.3" x2="1284.0" y2="301.3" stroke="#777777"/>
<line class="ci" x1="1276.0" y1="297.1" x2="1284.0" y2="297.1" stroke="#777777"/>
<circle cx="1280.0" cy="299.2" r="4.5" fill="#777777"/>
<polyline fill="none" stroke="#777777" stroke-width="2" points="940.0,340.6 977.8,338.0 1053.3,330.8 1128.9,321.5 1280.0,299.2"/>
<line class="ci" x1="940.0" y1="339.3" x2="940.0" y2="339.2" stroke="#e69f00"/>
<line class="ci" x1="936.0" y1="339.3" x2="944.0" y2="339.3" stroke="#e69f00"/>
<line class="ci" x1="936.0" y1="339.2" x2="944.0" y2="339.2" stroke="#e69f00"/>
<circle cx="940.0" cy="339.2" r="4.5" fill="#e69f00"/>
<line class="ci" x1="977.8" y1="331.9" x2="977.8" y2="331.6" stroke="#e69f00"/>
<line class="ci" x1="973.8" y1="331.9" x2="981.8" y2="331.9" stroke="#e69f00"/>
<line class="ci" x1="973.8" y1="331.6" x2="981.8" y2="331.6" stroke="#e69f00"/>
<circle cx="977.8" cy="331.8" r="4.5" fill="#e69f00"/>
<line class="ci" x1="1053.3" y1="304.2" x2="1053.3" y2="303.0" stroke="#e69f00"/>
<line class="ci" x1="1049.3" y1="304.2" x2="1057.3" y2="304.2" stroke="#e69f00"/>
<line class="ci" x1="1049.3" y1="303.0" x2="1057.3" y2="303.0" stroke="#e69f00"/>
<circle cx="1053.3" cy="303.6" r="4.5" fill="#e69f00"/>
<line class="ci" x1="1128.9" y1="259.2" x2="1128.9" y2="256.4" stroke="#e69f00"/>
<line class="ci" x1="1124.9" y1="259.2" x2="1132.9" y2="259.2" stroke="#e69f00"/>
<line class="ci" x1="1124.9" y1="256.4" x2="1132.9" y2="256.4" stroke="#e69f00"/>
<circle cx="1128.9" cy="257.8" r="4.5" fill="#e69f00"/>
<line class="ci" x1="1280.0" y1="116.2" x2="1280.0" y2="108.6" stroke="#e69f00"/>
<line class="ci" x1="1276.0" y1="116.2" x2="1284.0" y2="116.2" stroke="#e69f00"/>
<line class="ci" x1="1276.0" y1="108.6" x2="1284.0" y2="108.6" stroke="#e69f00"/>
<circle cx="1280.0" cy="112.4" r="4.5" fill="#e69f00"/>
<polyline fill="none" stroke="#e69f00" stroke-width="2" points="940.0,339.2 977.8,331.8 1053.3,303.6 1128.9,257.8 1280.0,112.4"/>
<circle cx="82" cy="440" r="5" fill="#0072b2"/>
<text class="tick" x="94" y="444">paired null</text>
<circle cx="82" cy="460" r="5" fill="#009e73"/>
<text class="tick" x="94" y="464">constrained Fisher</text>
<circle cx="82" cy="480" r="5" fill="#cc79a7"/>
<text class="tick" x="94" y="484">Fisher grid</text>
<circle cx="82" cy="500" r="5" fill="#d55e00"/>
<text class="tick" x="94" y="504">unpaired null</text>
<circle cx="82" cy="520" r="5" fill="#777777"/>
<text class="tick" x="94" y="524">random</text>
<circle cx="82" cy="540" r="5" fill="#e69f00"/>
<text class="tick" x="94" y="544">task greedy</text>
<text class="caption" x="500" y="430">Means with 95% CIs over 60 trials x 4 damage cases per policy/horizon (n=240 per point).</text>
<text class="caption" x="500" y="447">Source: runs/budget_sweep_results.csv. Lower is better for all three metrics.</text>
</svg>
